# xmcd
#
# Track frame offsets:
#	150
#	35531
#	112663
#	152240
#	156612
#	161904
#
# Disc length: 2650 seconds
# Revision: 0
# Processed by: cddbd v1.5.2PL0 Copyright (c) Steve Scherf et al.
# Submitted via: dBpowerAMP V12.0
#
DISCID=470a5806
DTITLE=Hale Dwoskin - The Inner Circle Retreat 02 CD 15
DYEAR=2007
DGENRE=Speech
TTITLE0=Fuzzy Awareness
TTITLE1=Sharing - The Waves and the Ocean
TTITLE2=Effective Tools for Coaches - Wanting vs Intention
TTITLE3=Instructions
TTITLE4=Client Is Not Getting It
TTITLE5=Stuckness
EXTD=
EXTT0=
EXTT1=
EXTT2=
EXTT3=
EXTT4=
EXTT5=
PLAYORDER=
